<svg width="150" height="159" viewBox="0 0 150 159" fill="none" xmlns="http://www.w3.org/2000/svg">
  <rect y="9" width="150" height="150" rx="30" fill="#FAC017"/>
  <path d="M86.49 39.91C86.8367 39.3033 87.3567 39 88.05 39H97.93C98.7967 39 99.23 39.4333 99.23 40.3V128.7C99.23 129.567 98.7967 130 97.93 130H88.05C87.1833 130 86.75 129.567 86.75 128.7V64.22C86.75 63.96 86.6633 63.83 86.49 63.83C86.4033 63.83 86.2733 63.9167 86.1 64.09L73.62 87.36C73.36 87.9667 72.97 88.27 72.45 88.27C71.93 88.27 71.54 87.9667 71.28 87.36L58.93 64.22C58.7567 64.0467 58.5833 63.96 58.41 63.96C58.3233 63.96 58.28 64.09 58.28 64.35V128.7C58.28 129.567 57.8467 130 56.98 130H47.1C46.2333 130 45.8 129.567 45.8 128.7V40.3C45.8 39.4333 46.2333 39 47.1 39H56.98C57.5867 39 58.1067 39.3033 58.54 39.91L72.19 64.35C72.2767 64.4367 72.4067 64.48 72.58 64.48C72.7533 64.48 72.8833 64.4367 72.97 64.35L86.49 39.91Z" fill="black"/>
</svg>