<svg width="1280" height="701" viewBox="0 0 1280 701" fill="none" xmlns="http://www.w3.org/2000/svg">
	<mask id="mask0_20_66" style="mask-type:alpha" maskUnits="userSpaceOnUse" x="0" y="-1" width="1280" height="703">
		<path d="M0 700L1280 700" stroke="black" stroke-opacity="0.1" stroke-width="2"/>
		<path d="M0 680L1280 680" stroke="black" stroke-opacity="0.1" stroke-width="2"/>
		<path d="M0 660L1280 660" stroke="black" stroke-opacity="0.1" stroke-width="2"/>
		<path d="M0 640L1280 640" stroke="black" stroke-opacity="0.1" stroke-width="2"/>
		<path d="M0 620L1280 620" stroke="black" stroke-opacity="0.1" stroke-width="2"/>
		<path d="M0 600L1280 600" stroke="black" stroke-opacity="0.1" stroke-width="2"/>
		<path d="M0 580L1280 580" stroke="black" stroke-opacity="0.1" stroke-width="2"/>
		<path d="M0 560L1280 560" stroke="black" stroke-opacity="0.1" stroke-width="2"/>
		<path d="M0 540L1280 540" stroke="black" stroke-opacity="0.1" stroke-width="2"/>
		<path d="M0 520L1280 520" stroke="black" stroke-opacity="0.1" stroke-width="2"/>
		<path d="M0 500L1280 500" stroke="black" stroke-opacity="0.1" stroke-width="2"/>
		<path d="M0 480L1280 480" stroke="black" stroke-opacity="0.1" stroke-width="2"/>
		<path d="M0 460L1280 460" stroke="black" stroke-opacity="0.1" stroke-width="2"/>
		<path d="M0 440L1280 440" stroke="black" stroke-opacity="0.1" stroke-width="2"/>
		<path d="M0 420L1280 420" stroke="black" stroke-opacity="0.1" stroke-width="2"/>
		<path d="M0 400L1280 400" stroke="black" stroke-opacity="0.1" stroke-width="2"/>
		<path d="M0 380L1280 380" stroke="black" stroke-opacity="0.1" stroke-width="2"/>
		<path d="M0 360L1280 360" stroke="black" stroke-opacity="0.1" stroke-width="2"/>
		<path d="M0 340L1280 340" stroke="black" stroke-opacity="0.1" stroke-width="2"/>
		<path d="M0 320L1280 320" stroke="black" stroke-opacity="0.1" stroke-width="2"/>
		<path d="M0 300L1280 300" stroke="black" stroke-opacity="0.1" stroke-width="2"/>
		<path d="M0 280L1280 280" stroke="black" stroke-opacity="0.1" stroke-width="2"/>
		<path d="M0 260L1280 260" stroke="black" stroke-opacity="0.1" stroke-width="2"/>
		<path d="M0 240L1280 240" stroke="black" stroke-opacity="0.1" stroke-width="2"/>
		<path d="M0 220L1280 220" stroke="black" stroke-opacity="0.1" stroke-width="2"/>
		<path d="M0 200L1280 200" stroke="black" stroke-opacity="0.1" stroke-width="2"/>
		<path d="M0 180L1280 180" stroke="black" stroke-opacity="0.1" stroke-width="2"/>
		<path d="M0 160L1280 160" stroke="black" stroke-opacity="0.1" stroke-width="2"/>
		<path d="M0 140L1280 140" stroke="black" stroke-opacity="0.1" stroke-width="2"/>
		<path d="M0 120L1280 120" stroke="black" stroke-opacity="0.1" stroke-width="2"/>
		<path d="M0 100L1280 100" stroke="black" stroke-opacity="0.1" stroke-width="2"/>
		<path d="M0 80L1280 80.0001" stroke="black" stroke-opacity="0.1" stroke-width="2"/>
		<path d="M0 60L1280 60.0001" stroke="black" stroke-opacity="0.1" stroke-width="2"/>
		<path d="M0 40L1280 40.0001" stroke="black" stroke-opacity="0.1" stroke-width="2"/>
		<path d="M0 20L1280 20.0001" stroke="black" stroke-opacity="0.1" stroke-width="2"/>
		<path d="M0 0L1280 0.000111901" stroke="black" stroke-opacity="0.1" stroke-width="2"/>
	</mask>
	<g mask="url(#mask0_20_66)">
		<rect width="1280" height="718" fill="url(#paint0_linear_20_66)"/>
	</g>
	<defs>
		<linearGradient id="paint0_linear_20_66" x1="640" y1="0" x2="640" y2="718" gradientUnits="userSpaceOnUse">
			<stop stop-color="#D9D9D9"/>
			<stop offset="1" stop-color="#737373"/>
		</linearGradient>
	</defs>
</svg>
